<svg xmlns="http://www.w3.org/2000/svg" width="72.01" height="72" viewBox="0 0 72.01 72"><g transform="translate(-769.43 -6496.7)"><path d="M1236.95,6695.3l-14.28,14.28-12.72-12.72.27-.27,14.01-14.01Z" transform="translate(-437.88 -143.52)" fill="#c8167c"/><path d="M1216.31,6712.22h-9v-9Z" transform="translate(-437.88 -143.52)" fill="#c8167c"/><path d="M1279.31,6652.95l-8.95,8.95-7.96,7.95-12.72-12.72,7.96-7.95,6.31-6.32,2.63-2.64Z" transform="translate(-437.88 -143.52)" fill="#c8167c"/><path d="M1279.32,6699.49l-12.73,12.72-19.81-19.81-3.46-3.46-12.72-12.72-2.92-2.92-1.27-1.27,12.72-12.72,1.27,1.27,2.92,2.91,12.72,12.72,3.46,3.46Z" transform="translate(-437.88 -143.52)" fill="#c8167c"/><path d="M794.89,6509.42l-12.73,12.73c-9-9-12.69-14.1-12.73-25.45C780.78,6496.73,785.89,6500.42,794.89,6509.42Z" transform="translate(0 0)" fill="#c8167c"/></g></svg>