<svg xmlns="http://www.w3.org/2000/svg" width="72" height="72" viewBox="0 0 72 72"><g transform="translate(-769.43 -6337.04)"><path d="M823.43,6373a16.85,16.85,0,0,1-9,14.759v-29.52A16.849,16.849,0,0,1,823.43,6373Z" transform="translate(0 0)" fill="#e82569"/><rect width="9" height="36" transform="translate(769.43 6355.04)" fill="#e82569"/><path d="M1243.31,6480.56v72l-27-18v-36Z" transform="translate(-437.88 -143.52)" fill="#e82569"/><path d="M841.43,6373a29.66,29.66,0,0,1-18,26.9v-9.67a20.37,20.37,0,0,0,0-34.459v-9.67a29.66,29.66,0,0,1,18,26.9Z" transform="translate(0 0)" fill="#e82569"/></g></svg>