<svg xmlns="http://www.w3.org/2000/svg" width="74.357" height="72.001" viewBox="0 0 74.357 72.001"><g transform="translate(-1325.832 -7134.29)"><path d="M1353.72,7150v10.46a13.48,13.48,0,0,0,0,19.609v10.46a22.29,22.29,0,0,1,0-40.53Z" transform="translate(0 0)" fill="#e82569"/><path d="M1353.72,7134.29v9.17a28.39,28.39,0,0,0,0,53.649v9.181a37.18,37.18,0,0,1,0-72Z" transform="translate(0 0)" fill="#e82569"/><circle cx="7.43" cy="7.43" r="7.43" transform="translate(1355.58 7162.86)" fill="#e82569"/><path d="M1372.3,7190.55v-10.46a13.461,13.461,0,0,0,0-19.611V7150a22.29,22.29,0,0,1,0,40.53Z" transform="translate(0 0)" fill="#e82569"/><path d="M1372.3,7206.29v-9.18a28.39,28.39,0,0,0,0-53.65v-9.17a37.18,37.18,0,0,1,0,72Z" transform="translate(0 0)" fill="#e82569"/></g></svg>