<svg xmlns="http://www.w3.org/2000/svg" width="64" height="72" viewBox="0 0 64 72"><g transform="translate(-173.72 -6496.7)"><path d="M173.72,6568.7a32,32,0,0,1,64,0" transform="translate(0 0)" fill="#e82569"/><path d="M640.78,6664.7l-6.35,6.35-5.65-5.65.12-.13,6.22-6.22Z" transform="translate(-437.88 -143.52)" fill="#e82569"/><path d="M631.6,6672.22h-4v-4Z" transform="translate(-437.88 -143.52)" fill="#e82569"/><path d="M659.6,6645.88l-3.97,3.98-3.54,3.53-5.66-5.65,3.54-3.54,2.81-2.8,1.17-1.18Z" transform="translate(-437.88 -143.52)" fill="#e82569"/><path d="M659.61,6666.56l-5.66,5.66-8.8-8.81-1.54-1.53-5.65-5.66-1.3-1.3-.57-.56,5.66-5.65.56.56,1.3,1.29,5.65,5.66,1.54,1.54Z" transform="translate(-437.88 -143.52)" fill="#e82569"/><path d="M201,6502.36l-5.66,5.65c-4-4-5.64-6.27-5.66-11.31C194.77,6496.72,197,6498.36,201,6502.36Z" transform="translate(0 0)" fill="#e82569"/></g></svg>