<svg xmlns="http://www.w3.org/2000/svg" width="70.87" height="70.86" viewBox="0 0 70.87 70.86"><g transform="translate(-1327.58 -6338.18)"><path d="M1383.33,6340.78l-7.54,7.54h0l-1.32,1.31,12.53,12.52,8.86-8.85Zm-29.18-2.6v8.51a26.576,26.576,0,0,0-3.91,1.63l-7.54-7.54-12.52,12.52,7.54,7.54a26.635,26.635,0,0,0-1.63,3.91h-8.51v17.72h7.78l11.71-11.7a15.945,15.945,0,0,1,2.38-6,16.162,16.162,0,0,1,10.72-7.08l11.7-11.71v-7.78Z" transform="translate(0 0)" fill="#e82569"/><path d="M1389.93,6382.47a26.113,26.113,0,0,1-1.62,3.919l7.54,7.541-12.52,12.52-7.54-7.54a26.194,26.194,0,0,1-3.92,1.62V6409h-17.72v-7.78l11.71-11.7.49-.09a15.779,15.779,0,0,0,5.52-2.3,16.006,16.006,0,0,0,4.71-4.7,15.764,15.764,0,0,0,2.29-5.521,3.894,3.894,0,0,1,.09-.49l11.7-11.71h7.79v17.72Z" transform="translate(0 0)" fill="#e82569"/><path d="M1820.44,6510.1l-10.69,10.69-12.18,12.2h-.01l-5.52,5.53-3.91,3.91-5.58,5.58-1.97,1.96-12.52-12.52,1.97-1.96,5.57-5.58v-.01l9.44-9.43v-.01l7-7,5.18-5.19,10.69-10.69Z" transform="translate(-437.88 -143.52)" fill="#e82569"/><path d="M1833.73,6496.82l-8.86,8.85-12.53-12.52,1.32-1.31h.01l7.53-7.54h.01Z" transform="translate(-437.88 -143.52)" fill="#e82569"/><path d="M1774.32,6552.56h-8.86v-8.85Z" transform="translate(-437.88 -143.52)" fill="#e82569"/></g></svg>