<svg xmlns="http://www.w3.org/2000/svg" width="64" height="72" viewBox="0 0 64 72"><g transform="translate(-1331 -6824.47)"><path d="M1363,6836.25a4.22,4.22,0,1,1-4.22,4.22,4.22,4.22,0,0,1,4.22-4.22Zm0-3.78a8,8,0,1,0,8,8A8,8,0,0,0,1363,6832.47Z" transform="translate(0 0)" fill="#c8167c"/><path d="M1363,6828.25a12.22,12.22,0,1,1-12.22,12.22,12.22,12.22,0,0,1,12.22-12.22Zm0-3.78a16,16,0,1,0,16,16A16,16,0,0,0,1363,6824.47Z" transform="translate(0 0)" fill="#c8167c"/><path d="M1331,6896.47a32,32,0,0,1,64,0Z" transform="translate(0 0)" fill="#c8167c"/></g></svg>