<svg xmlns="http://www.w3.org/2000/svg" width="64" height="72" viewBox="0 0 64 72"><g transform="translate(-1331 -6976.94)"><path d="M1331,7048.94a32,32,0,0,1,64,0Z" transform="translate(0 0)" fill="#c8167c"/><path d="M1379,6996.94v-8h-3.84a11.433,11.433,0,0,0-.74-1.77l3.41-3.41-5.66-5.65-3.4,3.41a11.841,11.841,0,0,0-1.77-.74v-3.84h-8v3.84a11.8,11.8,0,0,0-1.77.741l-3.4-3.411-5.66,5.65,3.41,3.41a11.418,11.418,0,0,0-.74,1.771H1347v8h3.84a12.3,12.3,0,0,0,.74,1.77l-3.41,3.4,5.66,5.65,3.4-3.4a11.824,11.824,0,0,0,1.77.729v3.851h8v-3.85a11.819,11.819,0,0,0,1.77-.73l3.4,3.4,5.66-5.65-3.41-3.4a12.312,12.312,0,0,0,.74-1.77Zm-8.84-2.5a7.35,7.35,0,0,1-5.65,5.66,7.668,7.668,0,0,1-3,0,7.349,7.349,0,0,1-5.81-7.161,7.221,7.221,0,0,1,1.2-4,7.3,7.3,0,0,1,12.24,0,7.222,7.222,0,0,1,1.2,4,7.4,7.4,0,0,1-.17,1.5Z" transform="translate(0 0)" fill="#c8167c"/></g></svg>