<svg xmlns="http://www.w3.org/2000/svg" width="72.04" height="72.04" viewBox="0 0 72.04 72.04"><g transform="translate(-769.39 -6655.04)"><path d="M841.43,6700.06v-18h-8.65a26.918,26.918,0,0,0-1.65-4l7.66-7.66-12.72-12.72-7.66,7.66a26.794,26.794,0,0,0-4-1.65v-8.649h-18v8.65a26.842,26.842,0,0,0-4,1.649l-7.66-7.659-12.72,12.72,7.66,7.66a26.9,26.9,0,0,0-1.65,4h-8.65v18h8.65a26.927,26.927,0,0,0,1.65,4l-7.66,7.66,12.72,12.72,7.66-7.66a26.84,26.84,0,0,0,4,1.65v8.65h18v-8.65a26.9,26.9,0,0,0,4-1.649l7.66,7.66,12.72-12.72-7.66-7.66a26.934,26.934,0,0,0,1.65-4Zm-19.89-5.61a16.487,16.487,0,0,1-12.72,12.72,16.6,16.6,0,0,1-6.78,0,16.485,16.485,0,0,1-12.72-12.719,16.46,16.46,0,1,1,32.22,0Z" transform="translate(0 0)" fill="#e82569"/></g></svg>