<svg xmlns="http://www.w3.org/2000/svg" width="145.355" height="100.07" viewBox="0 0 145.355 100.07">
  <path id="Path_69" data-name="Path 69" d="M280.25,1143.08v5.67c3.64,0,8,1.91,11.4,5,5.84,5.3,9.19,13.33,11.46,19.73a149.3,149.3,0,0,1,8.39,43.14,57.244,57.244,0,0,1,0,6.46A18.69,18.69,0,0,1,309,1232a12.37,12.37,0,0,1-10.3,5.22,11,11,0,0,1-5.49-1.39c-2.37-1.37-4.47-3.68-6.69-6.13-.89-1-1.8-2-2.77-3a55.369,55.369,0,0,0-39.34-16.53h-.33a55.36,55.36,0,0,0-39.47,17c-.85.9-1.66,1.81-2.45,2.69a31.771,31.771,0,0,1-5.69,5.46,12.469,12.469,0,0,1-6.84,2,11.657,11.657,0,0,1-3.3-.47,11.93,11.93,0,0,1-7.52-6.73c-1.25-3.06-1.26-6.82-1.17-10.73.53-20.79,3.85-37.71,10.15-51.74,2.89-6.41,5.87-10.83,9.39-13.93a17.611,17.611,0,0,1,11.24-4.68,11.85,11.85,0,0,1,1.89.15,30.569,30.569,0,0,1,7.24,2.6c.87.39,1.77.79,2.69,1.18a63.133,63.133,0,0,0,24.37,4.86,64.883,64.883,0,0,0,18.2-2.6,50.389,50.389,0,0,0,7.992-3.388c3-1.46,5.74-2.83,8.25-3.12a11.351,11.351,0,0,1,1.17-.06v-5.67m0,0a15.7,15.7,0,0,0-1.81.1c-6,.68-11.46,5-17.25,6.7a59.236,59.236,0,0,1-16.59,2.37,57.182,57.182,0,0,1-22.17-4.41c-3.69-1.56-7.28-3.52-11.23-4.16a17.491,17.491,0,0,0-2.79-.22,23.289,23.289,0,0,0-15,6.1c-4.84,4.26-8.16,10-10.81,15.86-7.56,16.82-10.18,35.48-10.64,53.92-.11,4.4-.08,8.94,1.59,13a17.54,17.54,0,0,0,11.17,10,17.258,17.258,0,0,0,4.89.7,18.168,18.168,0,0,0,10-3c3.561-2.361,6.161-5.871,9.111-9a50,50,0,0,1,35.4-15.27h.3a50,50,0,0,1,35.29,14.83c3.43,3.5,6.43,7.59,10.68,10a16.629,16.629,0,0,0,8.32,2.15,18,18,0,0,0,15.06-7.83,24.229,24.229,0,0,0,3.41-11.61,64.874,64.874,0,0,0,0-7.11,155.181,155.181,0,0,0-8.72-44.77c-2.88-8.12-6.61-16.24-13-22-4-3.66-9.65-6.46-15.22-6.46Z" transform="translate(-171.893 -1142.88)" fill="#c8167c"/>
</svg>
