<svg xmlns="http://www.w3.org/2000/svg" width="150" height="75" viewBox="0 0 150 75"><g transform="translate(-1222.76 -2024.22)"><path d="M1297.76,2029.89c22,0,44.45,10.7,66.86,31.83-22.41,21.12-44.88,31.83-66.86,31.83s-44.45-10.71-66.86-31.83c22.41-21.13,44.89-31.83,66.86-31.83m0-5.67q-37.5,0-75,37.5,37.5,37.5,75,37.5t75-37.5Q1335.26,2024.22,1297.76,2024.22Z" transform="translate(0 0)" fill="#c8167c"/><path d="M1297.76,2029.89a31.83,31.83,0,1,1-31.83,31.83,31.83,31.83,0,0,1,31.83-31.83m0-5.67a37.5,37.5,0,1,0,37.5,37.5A37.5,37.5,0,0,0,1297.76,2024.22Z" transform="translate(0 0)" fill="#c8167c"/><path d="M1297.75,2048.63h0a13.09,13.09,0,1,1-5.23,1.1,13.089,13.089,0,0,1,5.23-1.1m0-5.67a18.76,18.76,0,1,0,17.19,11.24,18.759,18.759,0,0,0-17.19-11.24Z" transform="translate(0 0)" fill="#c8167c"/></g></svg>