<svg xmlns="http://www.w3.org/2000/svg" width="491" height="372" viewBox="0 0 491 372"><g transform="translate(129.717 0)"><text transform="translate(-129.717 265)" fill="#1e1e1e" font-size="32" font-family="FuturaPT-Heavy, Futura PT" font-weight="800"><tspan x="104.188" y="31">RECRUITING AS AN </tspan><tspan x="54.3" y="72">APPROVED BFC PROVIDER</tspan></text><g transform="translate(0 0)"><path d="M364.426,383.486c.791,2.32-.688,19.18-5.6,24.662a50.571,50.571,0,0,1-13.113,9.023c-5.328,2.664-12.254,7.682-15.639,8.936a17.512,17.512,0,0,1-10.535.653,11.875,11.875,0,0,1-1.719-.67,18.668,18.668,0,0,1-6.634-6.617,15.113,15.113,0,0,1-1.2-3.093,10.308,10.308,0,0,1-.24-4.658,3.112,3.112,0,0,0-.137-1.959,7.7,7.7,0,0,0-1.856-2.371,4.486,4.486,0,0,1-1.839-3.265,3.209,3.209,0,0,1,.24-1.117c.962-2.166,5.242-3.8,10.312-3.8,5.482,0,10,1.856,10.535,4.228,0,0,.7,2.939-1.8,3.8a28.746,28.746,0,0,1-5.036,1.083c-.842,0-4.778.756-5.74,2.389a7.373,7.373,0,0,0,1.1,7.923,9.746,9.746,0,0,0,3.85,2.578,11.524,11.524,0,0,0,3.884.5,17.375,17.375,0,0,0,5.534-1.461c2.612-1.2,4.314-3.437,6.978-5.345,6.874-4.932,16.7-8.009,20.5-13.113,3.214-5.466,3.042-12.031,6.6-18.492,0,0,.378-.687.859-.6A.808.808,0,0,1,364.426,383.486Z" transform="translate(-224.525 -231.14)" fill="#1e1e1e"/><path d="M511.649,254.534c.223.945-7.046.842-8.456,7.287-2.406,11.016-14.419,7.82-20.623,16.361-1.461,1.719-2.853,1.444-3.557.808,3.437-4.383,7.407-11.343,9.573-13.921C491.9,261.1,504.483,252.884,511.649,254.534Z" transform="translate(-329.076 -153.608)" fill="#1e1e1e"/><path d="M449.593,63.895A25.125,25.125,0,0,1,454.9,79.07c24.782-6.5,45.165-20.263,44.065-49.015a78.6,78.6,0,0,0-7.562-28.477c-.413-.928,0-1.375,0-1.375.585-.481,1.237.155,1.237.155,8.473,10.9,16.241,39.15,9.83,54.531-9.04,21.723-27.086,27.154-39.408,34.922A53.267,53.267,0,0,0,452,99.246c-3.437,3.764-9.779,14.625-11.532,18.355,0,0-.327-6.7-9.71-10.965-1.1-.5,14.161-17.375,15.691-26.175,1.856-10.724-5.156-25.229-13.955-27.5C432.493,52.861,440.656,52.1,449.593,63.895Z" transform="translate(-299.896 -0.023)" fill="#1e1e1e"/><path d="M535.9,220.453a31.193,31.193,0,0,1-3.626,20.125,48.206,48.206,0,0,1-10.312,13.079c-3.661,3.609-8.507,5.551-12.717,8.593-5.156-.43-10.174-1.031-13.526-3.283,14.333-1.306,27.343-12.889,30.144-22.153,1.255-4.3,3.059-13.543-2.131-13.749-4.159-.1-9.761,2.9-14.092,5.156-4.967,2.561-12.8,6.874-13.491,4.967-1.89-3.248,7.614-9.521,13.164-12.391C516.825,216.929,529.234,211.688,535.9,220.453Z" transform="translate(-339.167 -130.268)" fill="#1e1e1e"/><path d="M474.452,336.152c1.065,1.873,1.237,3.438.361,6.651-3.953,14.591.894,35.575.825,51.266,0,2.2,3.025,26.054-3.437,26.226-1.478-.172-3.265-10.81-3.7-16.808-.773-10.931-3.145-21.517-2.853-32.963.447-14.625-.275-24.473,4.761-34.94.412-1.031,1.89-.963,1.89-.963a2.048,2.048,0,0,1,.98.223A3.286,3.286,0,0,1,474.452,336.152Z" transform="translate(-320.991 -202.109)" fill="#1e1e1e"/><path d="M187.967,535.342c-2.956,0-3.317-5.053-3.781-7.562-.567-3.11-.206-6.977-.791-10.948l-.172-1.031-.756.808c-5.861,6.411-12.03,13.267-24.765,14.092-7.081.464-14.677-.361-22.136.825-7.923,1.255-15.915,6.067-22.961,8.2a15.468,15.468,0,0,1-11.033-1.22c-1.615-.6-1.065-1.393-1.065-1.393a15.2,15.2,0,0,1,5.809-3.437c5.4-1.719,21.122-8.25,24.593-9.022,11.549-2.544,24.061.79,34.853-2.045,7.837-2.063,15.467-13.3,17.633-21.724.945-3.695,1.719-6.118,3.111-6.273a1.512,1.512,0,0,1,1.546.894,59.548,59.548,0,0,1,2.1,17.392c-.344,7.545,2.337,21.208-.928,22.342A5.465,5.465,0,0,1,187.967,535.342Z" transform="translate(-100.416 -298.731)" fill="#1e1e1e"/><path d="M419.531,345.969c-3.8-1.255-10.174,0-12.305.911-3.438,1.495-3.987,5.723-4.28,8.37a4.608,4.608,0,0,0,.1,2.148,1.392,1.392,0,0,0,1.719.653c.327,0,2.08-.412,2.681-.55,5.156-.773,9.5,0,11.532-4.194a13.165,13.165,0,0,0,1.117-4.331C420.477,346.6,419.531,345.969,419.531,345.969Zm-4.829,4.8a4.423,4.423,0,0,1-1.719-.447c-.309-.533.189-1.718.189-1.718a1.616,1.616,0,0,1,3.128.55A1.72,1.72,0,0,1,414.7,350.764Z" transform="translate(-283.085 -208.643)" fill="#1e1e1e"/><path d="M257.458,129.106c-3.093-2.7-6.874-9.5-7.94-16.121a34.666,34.666,0,0,1,3.729-20.967,17.944,17.944,0,0,1,4.383-5.758,8.731,8.731,0,0,0-4.623,1.427s-5.895,3.179-8.885,12.391a23.894,23.894,0,0,0-1.014,3.541h-.258a64.478,64.478,0,0,1-12.03-4.571c-8.593-4.434-16.31-12.03-18.475-21.947-2.544-11.67,2.32-22.342,7.648-30.935a.447.447,0,0,0-.189-.585,1.325,1.325,0,0,0-1.151,0c-2.99,1.427-19.249,18.149-10.14,42.965,4.915,13.388,22.634,22.119,31.33,25.779,0,0,.842.309,1.5.516a104.83,104.83,0,0,0,1.89,12.649,38.447,38.447,0,0,0,3.145,8.988c-2.114,2.664-1.89,7.665-3.437,10.845,0,0-.584,1.2-1.031,2.063l-.12.189h0l-.567-.464c-4.125-3.609-4.417-9.676-6.668-14.2-4.795-9.572-13.852-13.165-24.061-17.375-3.815,2.475-3.472,7.871-2.6,13.113.894,5.62,4.073,11.137,6.445,16.052a20.832,20.832,0,0,0,9.4,9.126c3.8,1.546,7.768,2.045,9.418-.756a.7.7,0,0,0-.155-.859c-.189-.344-1.358-.636-1.358-.636-1.358-.533-2.561-.945-3.712-1.341-7.717-3.094-9.624-7.7-9.624-7.7-3.437-6.256-6.582-14.058-3.437-19.265,7.27,2.99,7.407,2.6,12.03,7.785,3.764,4.245,2.681,11.051,5.448,16.31.842,1.615,4.95,2.922,6.685,4.623l.137.138c-.12.155-.55,1.1-.55,1.1s-1.925,4.64.585,8.112c2.062,3.437,1.976,8.18,5.413,10.518.842.584,1.718,1.082,3.832,2.354,1.856,1.1,4.383,2.131,4.778,1.427.825-7.665.292-16.74-8.971-14.385.567-9.676,8.129-20.177,8.679-21.208a13.749,13.749,0,0,1,8.387-6.187c4.039-1.117,8.095-.945,11.308-4.28C266.91,130.739,261.256,132.44,257.458,129.106Zm-10.483,37.243a1.616,1.616,0,0,1,1.512,1.065s.5,1.186.189,1.718a4.436,4.436,0,0,1-1.718.447,1.719,1.719,0,0,1-1.615-1.615,1.615,1.615,0,0,1,1.632-1.6h.018Z" transform="translate(-164.046 -27.459)" fill="#1e1e1e"/></g></g></svg>