<svg xmlns="http://www.w3.org/2000/svg" 
    xmlns:xlink="http://www.w3.org/1999/xlink" width="235.35" height="165" viewBox="0 0 235.35 165">
    <defs>
        <linearGradient id="a" x1="0.5" x2="0.5" y2="1" gradientUnits="objectBoundingBox">
            <stop offset="0" stop-color="#fbc87c"/>
            <stop offset="0.803" stop-color="#e72568"/>
            <stop offset="1" stop-color="#c8167c"/>
        </linearGradient>
    </defs>
    <path d="M50.521,8.571H9.421a6.87,6.87,0,0,0-6.85,6.85v150.7a6.87,6.87,0,0,0,6.85,6.85h41.1a6.87,6.87,0,0,0,6.85-6.85V15.421a6.87,6.87,0,0,0-6.85-6.85Zm-6.85,41.1h-27.4v-13.7h27.4Zm75.35-41.1h-41.1a6.87,6.87,0,0,0-6.85,6.85v150.7a6.87,6.87,0,0,0,6.85,6.85h41.1a6.87,6.87,0,0,0,6.85-6.85V15.421a6.87,6.87,0,0,0-6.85-6.85Zm-6.85,41.1h-27.4v-13.7h27.4Zm54.177-30.508-36.7,18.494a6.87,6.87,0,0,0-3.035,9.2L188.254,169.2c1.695,3.365,5.872,5.463,9.237,3.768l36.667-19.226a6.87,6.87,0,0,0,3.035-9.2L175.548,22.2a6.87,6.87,0,0,0-9.2-3.035Zm34.873,146.958c0,3.783,4.215-.626.432-.626s.252,4.109.252.326-13.406,5.749-9.623,5.749S201.221,162.338,201.221,166.121Z" transform="translate(-2.571 -8.571)" fill="url(#a)"/>
</svg>