<svg xmlns="http://www.w3.org/2000/svg" width="26.25" height="30" viewBox="0 0 26.25 30"><path d="M0,27.188A2.813,2.813,0,0,0,2.812,30H23.438a2.813,2.813,0,0,0,2.813-2.812V11.25H0ZM18.75,15.7a.705.705,0,0,1,.7-.7H21.8a.705.705,0,0,1,.7.7v2.344a.705.705,0,0,1-.7.7H19.453a.705.705,0,0,1-.7-.7Zm0,7.5a.705.705,0,0,1,.7-.7H21.8a.705.705,0,0,1,.7.7v2.344a.705.705,0,0,1-.7.7H19.453a.705.705,0,0,1-.7-.7Zm-7.5-7.5a.705.705,0,0,1,.7-.7H14.3a.705.705,0,0,1,.7.7v2.344a.705.705,0,0,1-.7.7H11.953a.705.705,0,0,1-.7-.7Zm0,7.5a.705.705,0,0,1,.7-.7H14.3a.705.705,0,0,1,.7.7v2.344a.705.705,0,0,1-.7.7H11.953a.705.705,0,0,1-.7-.7Zm-7.5-7.5a.705.705,0,0,1,.7-.7H6.8a.705.705,0,0,1,.7.7v2.344a.705.705,0,0,1-.7.7H4.453a.705.705,0,0,1-.7-.7Zm0,7.5a.705.705,0,0,1,.7-.7H6.8a.705.705,0,0,1,.7.7v2.344a.705.705,0,0,1-.7.7H4.453a.705.705,0,0,1-.7-.7ZM23.438,3.75H20.625V.938A.94.94,0,0,0,19.688,0H17.813a.94.94,0,0,0-.937.938V3.75h-7.5V.938A.94.94,0,0,0,8.438,0H6.563a.94.94,0,0,0-.938.938V3.75H2.812A2.813,2.813,0,0,0,0,6.563V9.375H26.25V6.563A2.813,2.813,0,0,0,23.438,3.75Z" fill="#fbc87c"/></svg>