<svg xmlns="http://www.w3.org/2000/svg" 
    xmlns:xlink="http://www.w3.org/1999/xlink" width="231.104" height="165" viewBox="0 0 231.104 165">
    <defs>
        <linearGradient id="a" x1="2.642" y1="1.398" x2="2.635" gradientUnits="objectBoundingBox">
            <stop offset="0" stop-color="#fbc87c"/>
            <stop offset="0.72" stop-color="#e72568"/>
            <stop offset="1" stop-color="#c8167c"/>
        </linearGradient>
    </defs>
    <g transform="translate(-2.247 -6.757)">
        <path d="M20.688,14.386A12.611,12.611,0,1,0,33.234,27,12.567,12.567,0,0,0,20.688,14.386Z" transform="translate(35.291 46.323)" fill="url(#a)"/>
        <path d="M226.277,85.569C215.342,39.922,203.789,15.68,180.63,8.82a46.008,46.008,0,0,0-13.256-2.063c-14.236,0-24.19,7.582-49.567,7.582S82.476,6.757,68.24,6.757A45.5,45.5,0,0,0,54.984,8.82C31.826,15.68,20.272,39.974,9.337,85.569-1.6,131.216.414,164.175,13.309,170.313a15.047,15.047,0,0,0,6.447,1.444c11.193,0,23.262-12.276,34.919-26.821,13.256-16.557,16.557-17.021,56.891-17.021H124.1c40.283,0,43.636.413,56.891,17.021,11.605,14.545,23.726,26.821,34.919,26.821a15.215,15.215,0,0,0,6.447-1.444C235.2,164.123,237.16,131.165,226.277,85.569ZM55.5,93.151A20.426,20.426,0,1,1,75.719,72.726,20.363,20.363,0,0,1,55.5,93.151ZM144.68,83.093a10.367,10.367,0,1,1,10.367-10.367A10.368,10.368,0,0,1,144.68,83.093Zm22.643,22.643A10.342,10.342,0,1,1,177.69,95.421,10.357,10.357,0,0,1,167.323,105.736Zm0-45.286A10.367,10.367,0,1,1,177.69,50.083,10.368,10.368,0,0,1,167.323,60.45Zm22.643,22.643a10.367,10.367,0,1,1,10.367-10.367A10.368,10.368,0,0,1,189.966,83.093Z" transform="translate(0 0)" fill="url(#a)"/>
    </g>
</svg>