<svg xmlns="http://www.w3.org/2000/svg" width="50" height="57.143" viewBox="0 0 50 57.143"><path d="M33.171,27.143a2.925,2.925,0,1,1-2.914-3.171A3.044,3.044,0,0,1,33.171,27.143ZM19.829,23.971a3.183,3.183,0,0,0,0,6.343,3.044,3.044,0,0,0,2.914-3.171A3.026,3.026,0,0,0,19.829,23.971ZM50,5.886V57.143c-7.2-6.361-4.9-4.255-13.257-12.029L38.257,50.4H5.857A5.871,5.871,0,0,1,0,44.514V5.886A5.871,5.871,0,0,1,5.857,0H44.143A5.871,5.871,0,0,1,50,5.886ZM41.857,32.971a38.262,38.262,0,0,0-4.114-16.657,14.129,14.129,0,0,0-8.029-3l-.4.457A19.015,19.015,0,0,1,36.429,17.4a24.277,24.277,0,0,0-21.343-.829c-1.057.486-1.686.829-1.686.829a19.275,19.275,0,0,1,7.514-3.743l-.286-.343a14.129,14.129,0,0,0-8.029,3A38.262,38.262,0,0,0,8.486,32.971s2.4,4.143,8.714,4.343c0,0,1.057-1.286,1.914-2.371a8.886,8.886,0,0,1-5-3.371c.42.294,1.113.676,1.171.714a20.827,20.827,0,0,0,17.829,1A16.35,16.35,0,0,0,36.4,31.6,9.016,9.016,0,0,1,31.229,35c.857,1.086,1.886,2.314,1.886,2.314C39.429,37.114,41.857,32.971,41.857,32.971Z" fill="#e72568"/></svg>