<svg xmlns="http://www.w3.org/2000/svg" width="50" height="33.751" viewBox="0 0 50 33.751"><path d="M.072,34.83V7.057q0-.048.145-.916L16.562,20.124.265,35.794a4.086,4.086,0,0,1-.193-.964ZM2.242,4.213a2.078,2.078,0,0,1,.82-.145H47.083a2.73,2.73,0,0,1,.868.145L31.557,18.244l-2.17,1.736L25.1,23.5,20.8,19.979l-2.17-1.736ZM2.29,37.675,18.732,21.908,25.1,27.067l6.365-5.159L47.9,37.675a2.315,2.315,0,0,1-.82.145H3.061a2.184,2.184,0,0,1-.771-.145ZM33.63,20.124l16.3-13.983a2.878,2.878,0,0,1,.145.916V34.83a3.7,3.7,0,0,1-.145.964Z" transform="translate(-0.072 -4.068)" fill="#e72568"/></svg>