<svg xmlns="http://www.w3.org/2000/svg" xmlns:xlink="http://www.w3.org/1999/xlink" width="253.89" height="165" viewBox="0 0 253.89 165"><defs><linearGradient id="a" x1="-0.079" y1="0.417" x2="0.5" y2="1" gradientUnits="objectBoundingBox"><stop offset="0" stop-color="#fbc87c"/><stop offset="0.473" stop-color="#e72568"/><stop offset="1" stop-color="#c8167c"/></linearGradient></defs><g transform="translate(-2.215 -7.748)"><path d="M138.869,134.693c-6.292-2.262-16.573-2.375-21.124-4.128-3.146-1.244-8.146-2.6-9.776-4.58s-1.629-16.115-1.629-16.115a26.023,26.023,0,0,0,5.562-7.916c1.629-4.128,2.7-15.55,2.7-15.55s3.708,1.583,5.169-5.881c1.236-6.446,3.6-9.839,2.978-14.589-.674-4.75-3.259-3.619-3.259-3.619s3.259-4.806,3.259-21.148c0-16.851-12.641-33.418-36.293-33.418-23.6,0-36.349,16.624-36.349,33.418,0,16.342,3.2,21.148,3.2,21.148s-2.641-1.131-3.259,3.619c-.674,4.75,1.685,8.143,2.978,14.589,1.461,7.521,5.169,5.881,5.169,5.881s1.067,11.366,2.7,15.55a26.023,26.023,0,0,0,5.562,7.916s0,14.136-1.629,16.115-6.629,3.336-9.776,4.524c-4.495,1.753-14.776,1.979-21.124,4.241-6.292,2.262-25.731,12.553-25.731,38H164.544C164.6,147.246,145.161,136.955,138.869,134.693Z" transform="translate(42.592 0)" fill="url(#a)"/><path d="M64.211,82.405s13.656-.45,19.085-5.23C74.439,63.959,79.239,48.55,77.41,34.153,75.582,19.812,67.3,11.208,50.726,11.208H50.5c-16,0-24.627,8.548-26.456,22.945C22.214,48.494,27.3,65.646,18.214,77.175c5.428,4.836,19.142,4.668,19.142,4.668h0s.571,8.1-.571,9.448-4.514,2.643-6.857,3.093a134.244,134.244,0,0,0-14.8,4.049c-4.457,1.518-12.914,9.673-12.914,20.921H48.1c1.257-4.5,9.885-12.541,18.285-16.759,5.143-2.587,10.228-2.418,14.113-2.924,0,0,2.171-3.374-4.971-4.668,0,0-9.828-2.418-10.971-3.768C63.468,90,64.211,82.405,64.211,82.405Z" transform="translate(0 24.653)" fill="url(#a)"/><path d="M42.892,82.405s-13.656-.45-19.085-5.23c8.857-13.216,4.057-28.625,5.885-43.022,1.828-14.341,10.114-22.945,26.684-22.945h.229c16,0,24.627,8.548,26.456,22.945C84.89,48.494,79.8,65.646,88.89,77.175c-5.428,4.836-19.142,4.668-19.142,4.668h0s-.571,8.1.571,9.448,4.514,2.643,6.857,3.093a134.246,134.246,0,0,1,14.8,4.049c4.457,1.518,12.914,9.673,12.914,20.921H59.006c-1.257-4.5-9.885-12.541-18.285-16.759-5.143-2.587-10.228-2.418-14.113-2.924,0,0-2.171-3.374,4.971-4.668,0,0,9.828-2.418,10.971-3.768C43.635,90,42.892,82.405,42.892,82.405Z" transform="translate(151.216 24.653)" fill="url(#a)"/></g></svg>