<svg xmlns="http://www.w3.org/2000/svg" width="25.488" height="25.512" viewBox="0 0 25.488 25.512"><path d="M5.244,17.544a1.014,1.014,0,0,1,.3-.744,1.037,1.037,0,0,1,.72-.288H8.712a.909.909,0,0,1,.7.3,1.127,1.127,0,0,1,.012,1.464.892.892,0,0,1-.7.3H6.276a.979.979,0,0,1-.72-.3A1,1,0,0,1,5.244,17.544ZM8.676,25.86a1.111,1.111,0,0,1,.276-.732l1.764-1.716a.923.923,0,0,1,.708-.276,1.016,1.016,0,0,1,.72.276.9.9,0,0,1,.288.684,1.132,1.132,0,0,1-.288.768l-1.7,1.7a1.09,1.09,0,0,1-1.476,0A.969.969,0,0,1,8.676,25.86Zm0-16.608a1.111,1.111,0,0,1,.276-.732,1.152,1.152,0,0,1,.768-.3,1.009,1.009,0,0,1,.708.288l1.716,1.764a.931.931,0,0,1,.288.708.984.984,0,0,1-1.008,1.008.931.931,0,0,1-.708-.288L8.964,9.984A1,1,0,0,1,8.676,9.252Zm3.06,8.292a6.057,6.057,0,0,1,.84-3.12,6.267,6.267,0,0,1,2.292-2.292,6.156,6.156,0,0,1,5.544-.336A6.269,6.269,0,0,1,22.4,13.14a6.3,6.3,0,0,1,1.824,4.416,6.068,6.068,0,0,1-.84,3.132,6.293,6.293,0,0,1-2.28,2.28,6.259,6.259,0,0,1-6.264,0,6.293,6.293,0,0,1-2.28-2.28A6.376,6.376,0,0,1,11.736,17.544Zm2.04,0A4.24,4.24,0,0,0,18,21.792a4.261,4.261,0,0,0,4.248-4.248A4.045,4.045,0,0,0,21,14.58a4.111,4.111,0,0,0-3-1.224,4.057,4.057,0,0,0-2.976,1.224A4,4,0,0,0,13.776,17.544Zm3.192,9.336a.943.943,0,0,1,.3-.72,1.016,1.016,0,0,1,.72-.288,1,1,0,0,1,.732.288.977.977,0,0,1,.288.72v2.388a1.014,1.014,0,0,1-.3.744.979.979,0,0,1-.72.3.961.961,0,0,1-.72-.3,1.014,1.014,0,0,1-.3-.744V26.88Zm0-18.6V5.832a.979.979,0,0,1,.3-.72A1,1,0,0,1,18,4.8a.961.961,0,0,1,.72.3.979.979,0,0,1,.3.72V8.28a.909.909,0,0,1-.3.7,1,1,0,0,1-.72.276,1.037,1.037,0,0,1-.72-.276A.944.944,0,0,1,16.968,8.28ZM23.592,24.1a.942.942,0,0,1,.948-.948,1.016,1.016,0,0,1,.72.276l1.752,1.716a1.044,1.044,0,0,1,.288.732.969.969,0,0,1-.288.708,1.069,1.069,0,0,1-1.44,0l-1.7-1.7A1.168,1.168,0,0,1,23.592,24.1Zm0-13.1a.93.93,0,0,1,.276-.708l1.7-1.764a1.009,1.009,0,0,1,.708-.288.943.943,0,0,1,.72.3.979.979,0,0,1,.3.72,1.013,1.013,0,0,1-.288.744L25.26,11.712a1.058,1.058,0,0,1-.72.288.872.872,0,0,1-.672-.288A1.016,1.016,0,0,1,23.592,10.992ZM26.3,17.544a1.073,1.073,0,0,1,.288-.744.934.934,0,0,1,.684-.288H29.7a1.018,1.018,0,0,1,.72,1.752.979.979,0,0,1-.72.3H27.276a.892.892,0,0,1-.7-.3A1.037,1.037,0,0,1,26.3,17.544Z" transform="translate(-5.244 -4.8)"/></svg>